<?xml version="1.0" encoding="iso-8859-1"?><!-- Generator: Adobe Illustrator 21.0.0, SVG Export Plug-In . SVG Version: 6.00 Build 0)  -->
<svg style="enable-background:new 0 0 512 512;" height="512" id="Capa_1" version="1.1"
    viewBox="0 0 512 512" width="512" x="0px" xmlns="http://www.w3.org/2000/svg" y="0px"
    xml:space="preserve">
<g>
	<path style="fill:#E0F3FC;"
        d="M512,166c0,49.499-41.499,90-91,90l-165-21l-60-7.8l-57.001-7.2   C127.301,204.399,121,185.499,121,166c0-44.401,32.401-81.601,75-88.5c4.799-1.199,9.901-1.5,15-1.5c3.3,0,6.599,0.3,9.901,0.599   C228.701,59.5,241,45.099,256,34.9C273.1,22.899,293.8,16,316,16c41.4,0,77.999,23.699,95.099,60.599   C463.299,70.899,512,113.2,512,166z" />
    <path style="fill:#BDD9F1;"
        d="M512,166c0,49.499-41.499,90-91,90l-165-21l-60-7.8V77.5c4.799-1.199,9.901-1.5,15-1.5   c3.3,0,6.599,0.3,9.901,0.599C228.701,59.5,241,45.099,256,34.9C273.1,22.899,293.8,16,316,16c41.4,0,77.999,23.699,95.099,60.599   C463.299,70.899,512,113.2,512,166z" />
    <path style="fill:#BDD9F1;"
        d="M451,286c0,49.501-40.499,90-90,90l-165-21L78.999,340C67.301,324.401,61,305.501,61,286   c0-49.501,40.499-90,90-90c3.3,0,6.599,0.3,9.901,0.601c7.8-17.1,20.099-31.501,35.099-41.7c17.1-12.001,37.8-18.9,60-18.9   c41.4,0,77.999,23.699,95.099,60.601C403.299,190.901,451,233.2,451,286z" />
    <path style="fill:#99B9D9;"
        d="M451,286c0,49.501-40.499,90-90,90l-165-21V154.9c17.1-12.001,37.8-18.9,60-18.9   c41.4,0,77.999,23.699,95.099,60.601C403.299,190.901,451,233.2,451,286z" />
    <g>
		<g>
			<path style="fill:#E0F3FC;"
                d="M291.099,316.601C273.999,279.699,237.4,256,196,256s-77.999,23.699-95.099,60.601     C48.401,310.901,0,353.2,0,406c0,49.501,41.499,90,91,90h210c49.501,0,90-40.499,90-90     C391,353.2,343.599,310.901,291.099,316.601z" />
		</g>
	</g>
    <path style="fill:#BDD9F1;"
        d="M391,406c0,49.501-40.499,90-90,90H196V256c41.4,0,77.999,23.699,95.099,60.601   C343.599,310.901,391,353.2,391,406z" />
</g>















</svg>
