<?xml version="1.0" encoding="iso-8859-1"?><!-- Generator: Adobe Illustrator 21.0.0, SVG Export Plug-In . SVG Version: 6.00 Build 0)  -->
<svg style="enable-background:new 0 0 512 512;" height="512" id="Capa_1" version="1.1"
    viewBox="0 0 512 512" width="512" x="0px" xmlns="http://www.w3.org/2000/svg" y="0px"
    xml:space="preserve">
<g>
	<path style="fill:#BDD9F1;"
        d="M481,150c0,49.501-40.499,90-90,90l-165-21l-117.001-15C97.301,188.401,91,169.501,91,150   c0-49.501,40.499-90,90-90c3.3,0,6.599,0.3,9.901,0.601C198.701,43.5,211,29.099,226,18.9C243.1,6.899,263.8,0,286,0   c41.4,0,77.999,23.699,95.099,60.601C433.299,54.901,481,97.2,481,150z" />
    <path style="fill:#99B9D9;"
        d="M481,150c0,49.501-40.499,90-90,90l-165-21V18.9C243.1,6.899,263.8,0,286,0   c41.4,0,77.999,23.699,95.099,60.601C433.299,54.901,481,97.2,481,150z" />
    <g>
		<path style="fill:#76E2F8;"
            d="M106,512c-24.814,0-45-20.186-45-45c0-7.866,2.065-15.63,5.991-22.456L93.007,399.5    c5.361-9.287,20.625-9.287,25.986,0l26.001,45.015C148.935,451.37,151,459.134,151,467C151,491.814,130.814,512,106,512z" />
	</g>
    <g>
		<path style="fill:#76E2F8;"
            d="M265,444.5l-26.1-45c-2.699-4.501-7.8-6.901-12.9-6.901s-10.201,2.401-12.9,6.901l-26.1,45    c-3.9,6.899-6,14.7-6,22.5c0,24.899,20.099,45,45,45s45-20.101,45-45C271,459.2,268.9,451.399,265,444.5z" />
	</g>
    <g>
		<g>
			<path style="fill:#25D9F8;"
                d="M346,512c-24.814,0-45-20.186-45-45c0-7.866,2.065-15.63,5.991-22.456l26.016-45.044     c5.361-9.287,20.625-9.287,25.986,0l26.001,45.015C388.935,451.37,391,459.134,391,467C391,491.814,370.814,512,346,512z" />
		</g>
	</g>
    <g>
		<g>
			<path style="fill:#E0F3FC;"
                d="M321.099,181.601C303.999,144.699,267.4,121,226,121s-77.999,23.699-95.099,60.601     C78.401,175.901,31,218.2,31,271c0,49.501,40.499,90,90,90h210c49.501,0,90-40.499,90-90     C421,218.2,373.599,175.901,321.099,181.601z" />
		</g>
	</g>
    <path style="fill:#BDD9F1;"
        d="M421,271c0,49.501-40.499,90-90,90H226V121c41.4,0,77.999,23.699,95.099,60.601   C373.599,175.901,421,218.2,421,271z" />
    <path style="fill:#25D9F8;"
        d="M271,467c0,24.899-20.099,45-45,45V392.599c5.099,0,10.201,2.401,12.9,6.901l26.1,45   C268.9,451.399,271,459.2,271,467z" />
</g>















</svg>
