<?xml version="1.0" encoding="iso-8859-1"?><!-- Generator: Adobe Illustrator 19.0.0, SVG Export Plug-In . SVG Version: 6.00 Build 0)  -->
<svg style="enable-background:new 0 0 512 512;" id="Capa_1" version="1.1" viewBox="0 0 512 512"
    x="0px" xmlns="http://www.w3.org/2000/svg" y="0px" xml:space="preserve">
<path style="fill:#546F7A;" d="M393.739,346.379l-36.054-36.055c-1.543-1.541-3.681-2.34-5.855-2.204
	c-2.178,0.144-4.189,1.218-5.519,2.949c-5.056,6.587-10.583,12.89-16.425,18.733c-5.84,5.84-12.143,11.367-18.735,16.427
	c-1.731,1.329-2.806,3.34-2.948,5.519c-0.143,2.177,0.661,4.312,2.204,5.855l36.055,36.054c1.48,1.48,3.42,2.22,5.36,2.22
	c1.94,0,3.88-0.741,5.36-2.22l36.557-36.557C396.7,354.14,396.7,349.341,393.739,346.379z" />
    <path style="fill:#475D63;" d="M329.212,330.455c-5.653,5.596-11.717,10.905-18.06,15.774c-1.731,1.329-2.806,3.34-2.948,5.519
	c-0.142,2.177,0.661,4.312,2.204,5.855l36.055,36.054c1.48,1.48,3.42,2.22,5.36,2.22c1.94,0,3.88-0.741,5.36-2.22l17.049-17.049
	L329.212,330.455z" />
    <path style="fill:#FF4A4A;" d="M498.66,432.775l-95.659-95.658c-2.96-2.959-7.76-2.959-10.72,0l-55.08,55.081
	c-2.96,2.961-2.96,7.76,0,10.722l95.658,95.657c8.625,8.626,20.103,13.363,32.357,13.363c0.108,0,0.219,0,0.329-0.001
	c12.337-0.085,23.963-4.964,32.737-13.738C516.424,480.059,516.593,450.71,498.66,432.775z" />
    <path style="fill:#E7343F;" d="M488.516,481.056c-0.109,0.001-0.219,0.001-0.328,0.001c-12.254,0-23.734-4.736-32.357-13.363
	l-97.064-97.063L337.2,392.197c-2.96,2.961-2.96,7.76,0,10.722l95.658,95.657c8.625,8.626,20.103,13.363,32.357,13.363
	c0.108,0,0.219,0,0.328-0.001c12.337-0.085,23.963-4.964,32.737-13.738c6.571-6.571,10.771-14.614,12.62-23.051
	C504.116,478.945,496.466,481.001,488.516,481.056z" />
    <path style="fill:#546F7A;" d="M342.484,57.631c-77.49-77.489-204.417-76.647-282.941,1.878
	C21.518,97.536,0.374,147.897,0.005,201.317c-0.369,53.461,20.108,103.583,57.66,141.135
	c37.219,37.219,86.787,57.665,139.715,57.665c0.473,0,0.946-0.002,1.419-0.005c53.421-0.368,103.782-21.512,141.808-59.537
	C419.131,262.049,419.973,135.122,342.484,57.631z" />
    <path style="fill:#475D63;" d="M340.606,305.367c-38.026,38.024-88.387,59.169-141.808,59.537c-0.473,0.003-0.946,0.005-1.419,0.005
	c-52.928,0-102.497-20.446-139.715-57.665C24.604,274.183,4.786,231.376,0.769,185.127c-0.463,5.359-0.727,10.757-0.764,16.19
	c-0.369,53.461,20.108,103.583,57.66,141.135c37.219,37.219,86.787,57.665,139.715,57.665c0.473,0,0.946-0.002,1.419-0.005
	c53.421-0.368,103.782-21.512,141.808-59.537c44.123-44.123,63.717-103.528,58.672-160.857
	C395.293,225.447,375.726,270.249,340.606,305.367z" />
    <path style="fill:#A8EEFC;" d="M199.138,43.988c-85.362,0-154.809,69.447-154.809,154.809
	s69.447,154.809,154.809,154.809c85.361,0,154.808-69.447,154.808-154.809C353.947,113.435,284.5,43.988,199.138,43.988z"
        id="SVGCleanerId_0" />
    <g>
	<path style="fill:#A8EEFC;" d="M199.138,43.988c-85.362,0-154.809,69.447-154.809,154.809
		s69.447,154.809,154.809,154.809c85.361,0,154.808-69.447,154.808-154.809C353.947,113.435,284.5,43.988,199.138,43.988z"
        id="SVGCleanerId_0_1_" />
</g>
    <g>
	<path style="fill:#4CE166;" d="M258.28,101.498c-6.586-5.197-15.699-9.836-23.738-13.931c-4.239-2.16-10.01-5.098-13.59-7.403
		c7.189-2.97,23.831-6.208,40.235-7.602c3.425-0.29,6.225-2.849,6.823-6.234c0.597-3.386-1.157-6.749-4.274-8.195
		c-20.474-9.498-42.369-14.314-65.074-14.314c-49.382,0-96.223,23.885-125.3,63.894c-1.587,2.183-1.893,5.046-0.804,7.516
		c6.541,14.831,14.552,27.045,23.813,36.304c11.607,11.606,13.987,35.021,15.726,52.116c1.206,11.858,2.077,20.427,5.502,25.608
		c5.228,7.909,13.044,12.259,21.604,12.259c1.827,0,3.689-0.198,5.566-0.603c13.419-2.89,23.783-15.258,26.402-31.506
		c2.343-14.537,10.257-22.773,21.208-34.172c5.284-5.497,11.272-11.729,17.091-19.361c13.51-17.717,3.065-31.763-2.649-39.358
		c5.207,1.567,13.063,5.34,17.89,7.658c13.858,6.657,25.825,12.408,34.942,9.054c3.556-1.307,6.264-3.866,7.836-7.401
		C270.051,120.065,270.534,111.165,258.28,101.498z" />
        <path style="fill:#4CE166;" d="M165.355,305.097c-3.067-2.073-3.205-4.526-2.106-12.493c1.03-7.472,2.586-18.763-7.643-26.47
		c-14.188-10.69-28.19-1.707-40.542,6.218c-4.189,2.688-8.52,5.466-13.075,7.786c-6.392,3.256-11.929,8.636-16.455,15.992
		c-1.803,2.93-1.407,6.707,0.965,9.199c24.02,25.242,56.171,41.789,90.531,46.596c0.353,0.05,0.704,0.073,1.053,0.073
		c2.952,0,5.68-1.727,6.914-4.482C191.884,332.148,179.643,314.755,165.355,305.097z" />
        <path style="fill:#4CE166;" d="M352.534,219.675c-0.044-0.075-0.084-0.153-0.132-0.225c-0.625-0.961-15.62-23.477-45.6-17.973
		c-12.726,2.337-23.456,8.36-32.077,13.198c-8.254,4.634-15.382,8.63-19.29,6.716h0.001c-14.664-7.202-29.923-4.652-37.894,0.763
		c-7.809,5.303-11.733,14.312-11.051,25.365c0.925,14.984,11.708,24.2,19.583,30.929c10.296,8.798,9.667,9.785,7.798,12.712
		c-7.223,11.316-7.889,25.175-1.783,37.072c4.234,8.249,11.263,14.139,19.139,16.345
		C304.727,325.406,344.694,277.574,352.534,219.675z" />
</g>
    <path style="fill:#7EE5F2;" d="M199.138,318.419c-79.413,0-145.04-60.108-153.803-137.215c-0.657,5.776-1.006,11.645-1.006,17.594
	c0,85.362,69.447,154.809,154.809,154.809c85.361,0,154.808-69.447,154.808-154.809c0-5.949-0.349-11.817-1.006-17.594
	C344.178,258.311,278.551,318.419,199.138,318.419z" />
    <g>
	<path style="fill:#44C868;" d="M352.534,219.675c-0.044-0.075-0.084-0.153-0.132-0.225c-0.225-0.347-2.33-3.499-6.321-7.127
		c-17.484,52.613-62.48,92.783-117.853,103.354c0.526,4.294,1.796,8.538,3.86,12.557c4.234,8.249,11.263,14.139,19.139,16.345
		C304.727,325.406,344.694,277.574,352.534,219.675z" />
        <path style="fill:#44C868;" d="M99.051,281.846c-5.16,3.303-9.702,8.083-13.517,14.285c-1.803,2.93-1.407,6.707,0.965,9.199
		c24.02,25.242,56.171,41.789,90.531,46.596c0.353,0.05,0.704,0.073,1.053,0.073c2.952,0,5.68-1.727,6.914-4.482
		c4.603-10.272,0.656-21.445-6.731-30.612C148.336,312.949,121.08,300.407,99.051,281.846z" />
</g>
    <g>
</g>
    <g>
</g>
    <g>
</g>
    <g>
</g>
    <g>
</g>
    <g>
</g>
    <g>
</g>
    <g>
</g>
    <g>
</g>
    <g>
</g>
    <g>
</g>
    <g>
</g>
    <g>
</g>
    <g>
</g>
    <g>
</g>
</svg>
