<?xml version="1.0" encoding="iso-8859-1"?><!-- Generator: Adobe Illustrator 21.0.0, SVG Export Plug-In . SVG Version: 6.00 Build 0)  -->
<svg style="enable-background:new 0 0 512 512;" height="512" id="Capa_1" version="1.1"
    viewBox="0 0 512 512" width="512" x="0px" xmlns="http://www.w3.org/2000/svg" y="0px"
    xml:space="preserve">
<g>
	<path style="fill:#F9BD13;"
        d="M316,91c-30.366,0-57.539,18.105-69.229,46.128c-3.193,7.646,0.425,16.421,8.071,19.614   l98.936,58.213c6.501,5.153,15.947,4.025,21.064-2.461C385.258,199.325,391,182.816,391,166C391,124.647,357.353,91,316,91z" />
    <g>
		<g>
			<path style="fill:#F9BD13;"
                d="M316,60c-8.291,0-15-6.709-15-15V15c0-8.291,6.709-15,15-15s15,6.709,15,15v30     C331,53.291,324.291,60,316,60z" />
		</g>
	</g>
    <g>
		<g>
			<path style="fill:#F9BD13;"
                d="M466,181h-30c-8.291,0-15-6.709-15-15s6.709-15,15-15h30c8.291,0,15,6.709,15,15     S474.291,181,466,181z" />
		</g>
	</g>
    <g>
		<g>
			<path style="fill:#F9BD13;"
                d="M400.858,96.142c-3.838,0-7.676-1.465-10.605-4.395c-5.859-5.859-5.859-15.352,0-21.211     l21.211-21.211c5.859-5.859,15.352-5.859,21.211,0s5.859,15.352,0,21.211l-21.211,21.211     C408.534,94.677,404.696,96.142,400.858,96.142z" />
		</g>
	</g>
    <g>
		<g>
			<path style="fill:#F9BD13;"
                d="M231.142,96.142c-3.838,0-7.676-1.465-10.605-4.395l-21.211-21.211     c-5.859-5.859-5.859-15.352,0-21.211s15.352-5.859,21.211,0l21.211,21.211c5.859,5.859,5.859,15.352,0,21.211     C238.817,94.677,234.979,96.142,231.142,96.142z" />
		</g>
	</g>
    <g>
		<path style="fill:#76E2F8;"
            d="M106,512c-24.814,0-45-20.186-45-45c0-7.866,2.065-15.63,5.991-22.456L93.007,399.5    c5.361-9.287,20.625-9.287,25.986,0l26.001,45.015C148.935,451.37,151,459.134,151,467C151,491.814,130.814,512,106,512z" />
	</g>
    <g>
		<path style="fill:#76E2F8;"
            d="M265,444.5l-26.1-45c-2.699-4.501-7.8-6.899-12.9-6.899s-10.201,2.399-12.9,6.899l-26.1,45    c-3.9,6.899-6,14.7-6,22.5c0,24.901,20.099,45,45,45s45-20.099,45-45C271,459.2,268.9,451.399,265,444.5z" />
	</g>
    <g>
		<g>
			<path style="fill:#25D9F8;"
                d="M346,512c-24.814,0-45-20.186-45-45c0-7.866,2.065-15.63,5.991-22.456l26.016-45.044     c5.361-9.287,20.625-9.287,25.986,0l26.001,45.015C388.935,451.37,391,459.134,391,467C391,491.814,370.814,512,346,512z" />
		</g>
	</g>
    <g>
		<g>
			<path style="fill:#E0F3FC;"
                d="M321.099,181.601C303.999,144.699,267.4,121,226,121s-77.999,23.699-95.099,60.601     C78.401,175.901,31,218.2,31,271c0,49.501,40.499,90,90,90h210c49.501,0,90-40.499,90-90     C421,218.2,373.599,175.901,321.099,181.601z" />
		</g>
	</g>
    <path style="fill:#25D9F8;"
        d="M265,444.5c3.9,6.899,6,14.7,6,22.5c0,24.901-20.099,45-45,45V392.601   c5.099,0,10.201,2.399,12.9,6.899L265,444.5z" />
    <path style="fill:#BDD9F1;"
        d="M421,271c0,49.501-40.499,90-90,90H226V121c41.4,0,77.999,23.699,95.099,60.601   C373.599,175.901,421,218.2,421,271z" />
</g>















</svg>
