<?xml version="1.0" encoding="iso-8859-1"?><!-- Generator: Adobe Illustrator 21.0.0, SVG Export Plug-In . SVG Version: 6.00 Build 0)  -->
<svg style="enable-background:new 0 0 512.002 512.002;" height="512" id="Capa_1" version="1.1"
    viewBox="0 0 512.002 512.002" width="512" x="0px" xmlns="http://www.w3.org/2000/svg" y="0px"
    xml:space="preserve">
<g>
	<path style="fill:#BDD9F1;"
        d="M481.016,150c0,49.501-40.499,90-90,90l-165-21l-117.001-15c-11.699-15.599-17.999-34.499-17.999-54   c0-49.501,40.499-90,90-90c3.3,0,6.599,0.3,9.901,0.601c7.8-17.1,20.099-31.501,35.099-41.7c17.1-12.001,37.8-18.9,60-18.9   c41.4,0,77.999,23.699,95.099,60.601C433.315,54.901,481.016,97.2,481.016,150z" />
    <g>
		<path style="fill:#76E2F8;"
            d="M30.986,497.014c0-8.384,6.814-15.016,14.988-15.016c8.384,0,15.016,6.815,15.016,14.988    c0,8.384-6.814,15.016-14.988,15.016C37.618,512.002,30.986,505.187,30.986,497.014z" />
	</g>
    <g>
		<path style="fill:#76E2F8;"
            d="M150.986,497.014c0-8.384,6.814-15.016,14.988-15.016c8.384,0,15.016,6.815,15.016,14.988    c0,8.384-6.814,15.016-14.988,15.016C157.618,512.002,150.986,505.187,150.986,497.014z" />
	</g>
    <g>
		<g>
			<path style="fill:#25D9F8;"
                d="M270.986,497.014c0-8.384,6.814-15.016,14.988-15.016c8.384,0,15.016,6.815,15.016,14.988     c0,8.384-6.814,15.016-14.988,15.016C277.618,512.002,270.986,505.187,270.986,497.014z" />
		</g>
	</g>
    <g>
		<path style="fill:#76E2F8;"
            d="M90.986,452.014c0-8.384,6.814-15.016,14.988-15.016c8.384,0,15.016,6.815,15.016,14.988    c0,8.384-6.814,15.016-14.988,15.016C97.618,467.002,90.986,460.187,90.986,452.014z" />
	</g>
    <g>
		<path style="fill:#76E2F8;"
            d="M241.016,452c0,8.401-6.899,15-15,15c-8.401,0-15-6.899-15-15c0-8.401,6.899-15,15-15    C234.417,437,241.016,443.899,241.016,452z" />
	</g>
    <g>
		<g>
			<path style="fill:#25D9F8;"
                d="M330.986,452.014c0-8.384,6.814-15.016,14.988-15.016c8.384,0,15.016,6.815,15.016,14.988     c0,8.384-6.814,15.016-14.988,15.016C337.618,467.002,330.986,460.187,330.986,452.014z" />
		</g>
	</g>
    <g>
		<g>
			<path style="fill:#25D9F8;"
                d="M390.986,497.014c0-8.384,6.814-15.016,14.988-15.016c8.384,0,15.016,6.815,15.016,14.988     c0,8.384-6.814,15.016-14.988,15.016C397.618,512.002,390.986,505.187,390.986,497.014z" />
		</g>
	</g>
    <g>
		<path style="fill:#76E2F8;"
            d="M30.986,407.014c0-8.384,6.814-15.016,14.988-15.016c8.384,0,15.016,6.815,15.016,14.988    c0,8.384-6.814,15.016-14.988,15.016C37.618,422.002,30.986,415.187,30.986,407.014z" />
	</g>
    <g>
		<path style="fill:#76E2F8;"
            d="M150.986,407.014c0-8.384,6.814-15.016,14.988-15.016c8.384,0,15.016,6.815,15.016,14.988    c0,8.384-6.814,15.016-14.988,15.016C157.618,422.002,150.986,415.187,150.986,407.014z" />
	</g>
    <g>
		<g>
			<path style="fill:#25D9F8;"
                d="M270.986,407.014c0-8.384,6.814-15.016,14.988-15.016c8.384,0,15.016,6.815,15.016,14.988     c0,8.384-6.814,15.016-14.988,15.016C277.618,422.002,270.986,415.187,270.986,407.014z" />
		</g>
	</g>
    <g>
		<g>
			<path style="fill:#25D9F8;"
                d="M390.986,407.014c0-8.384,6.814-15.016,14.988-15.016c8.384,0,15.016,6.815,15.016,14.988     c0,8.384-6.814,15.016-14.988,15.016C397.618,422.002,390.986,415.187,390.986,407.014z" />
		</g>
	</g>
    <path style="fill:#25D9F8;"
        d="M241.016,452c0,8.401-6.899,15-15,15v-30C234.417,437,241.016,443.899,241.016,452z" />
    <path style="fill:#99B9D9;"
        d="M481.016,150c0,49.501-40.499,90-90,90l-165-21V18.9c17.1-12.001,37.8-18.9,60-18.9   c41.4,0,77.999,23.699,95.099,60.601C433.315,54.901,481.016,97.2,481.016,150z" />
    <g>
		<g>
			<path style="fill:#E0F3FC;"
                d="M321.116,181.601C304.016,144.699,267.416,121,226.016,121s-77.999,23.699-95.099,60.601     c-52.5-5.7-99.901,36.599-99.901,89.399c0,49.501,40.499,90,90,90h210c49.501,0,90-40.499,90-90     C421.016,218.2,373.616,175.901,321.116,181.601z" />
		</g>
	</g>
    <path style="fill:#BDD9F1;"
        d="M421.016,271c0,49.501-40.499,90-90,90h-105V121c41.4,0,77.999,23.699,95.099,60.601   C373.616,175.901,421.016,218.2,421.016,271z" />
</g>















</svg>
