<?xml version="1.0" encoding="iso-8859-1"?><!-- Generator: Adobe Illustrator 21.0.0, SVG Export Plug-In . SVG Version: 6.00 Build 0)  -->
<svg style="enable-background:new 0 0 512.031 512.031;" height="512" id="Capa_1" version="1.1"
    viewBox="0 0 512.031 512.031" width="512" x="0px" xmlns="http://www.w3.org/2000/svg" y="0px"
    xml:space="preserve">
<g>
	<path style="fill:#E0F3FC;"
        d="M15.031,286.014h377c75.044,0,119.897-60.586,119.897-119.165c0-45.22-27.803-90.835-89.897-90.835   c-53.705,0-89.971,43.926-89.971,89.004c0,36.489,24.097,60.996,59.971,60.996c33.091,0,60-26.909,60-60c0-8.291-6.709-15-15-15   s-15,6.709-15,15c0,16.538-13.462,30-30,30c-26.089,0-29.971-19.424-29.971-30.996c0-23.789,19.058-59.004,59.971-59.004   c44.165,0,59.897,31.421,59.897,60.835c0,22.002-8.423,44.063-23.086,60.557c-11.616,13.052-32.622,28.608-66.812,28.608h-377   c-8.291,0-15,6.709-15,15S6.74,286.014,15.031,286.014z" />
    <path style="fill:#BDD9F1;"
        d="M227.031,316.014h-212c-8.291,0-15,6.709-15,15s6.709,15,15,15h212   c51.724,0,74.985,43.506,74.985,74.399c0,10.693-3.252,45.601-44.985,45.601c-30.659,0-44.956-25.796-44.956-43.228   c0-10.546,4.28-16.772,14.956-16.772c8.276,0,15,6.724,15,15c0,8.291,6.709,15,15,15s15-6.709,15-15c0-24.814-20.186-45-45-45   c-27.553,0-44.956,19.801-44.956,46.772c0,35.215,28.667,73.228,74.956,73.228c23.467,0,43.022-8.057,56.543-23.291   c11.895-13.389,18.442-31.963,18.442-52.31C332.016,369.1,292.743,316.014,227.031,316.014z" />
    <path style="fill:#E0F3FC;"
        d="M15.031,226.014h91c8.291,0,15-6.709,15-15s-6.709-15-15-15h-91c-8.291,0-15,6.709-15,15   S6.74,226.014,15.031,226.014z" />
    <path style="fill:#BDD9F1;"
        d="M136.031,406.014h-121c-8.291,0-15,6.709-15,15s6.709,15,15,15h121c8.291,0,15-6.709,15-15   S144.322,406.014,136.031,406.014z" />
    <path style="fill:#E0F3FC;"
        d="M95.425,161.62c5.86,5.86,15.351,5.86,21.211,0l25.605-25.605h11.552   c4.532,12.708,14.529,22.705,27.237,27.237v11.552l-25.605,25.605c-5.859,5.859-5.859,15.352,0,21.211s15.352,5.859,21.211,0   l19.395-19.395l19.395,19.395c5.86,5.86,15.351,5.86,21.211,0c5.859-5.859,5.859-15.352,0-21.211l-25.605-25.605v-11.552   c12.708-4.532,22.705-14.529,27.237-27.237h11.552l25.605,25.605c5.86,5.86,15.351,5.86,21.211,0   c5.859-5.859,5.859-15.352,0-21.211l-19.395-19.395l19.395-19.395c5.859-5.859,5.859-15.352,0-21.211s-15.352-5.859-21.211,0   l-25.605,25.605h-11.552c-4.532-12.708-14.529-22.705-27.237-27.237V67.225l25.605-25.605c5.859-5.859,5.859-15.352,0-21.211   s-15.352-5.859-21.211,0l-19.395,19.395l-19.395-19.395c-5.859-5.859-15.352-5.859-21.211,0s-5.859,15.352,0,21.211l25.605,25.605   v11.552c-12.708,4.532-22.705,14.529-27.237,27.237h-11.552l-25.605-25.605c-5.859-5.859-15.352-5.859-21.211,0   s-5.859,15.352,0,21.211l19.395,19.395l-19.395,19.395C89.566,146.268,89.566,155.761,95.425,161.62z M196.031,106.014   c8.276,0,15,6.724,15,15s-6.724,15-15,15s-15-6.724-15-15S187.754,106.014,196.031,106.014z" />
    <path style="fill:#BDD9F1;"
        d="M497.031,406.014h-34.016l17.009-29.458c4.146-7.178,1.685-16.348-5.493-20.493   c-7.163-4.16-16.348-1.714-20.493,5.493l-17.007,29.454l-17.007-29.454c-4.16-7.207-13.374-9.653-20.493-5.493   c-7.178,4.146-9.639,13.315-5.493,20.493l17.009,29.458h-34.016c-8.291,0-15,6.709-15,15s6.709,15,15,15h34.016l-17.009,29.458   c-4.146,7.178-1.685,16.348,5.493,20.493c2.358,1.362,4.937,2.007,7.485,2.007c5.186,0,10.225-2.681,13.008-7.5l17.007-29.454   l17.007,29.454c2.783,4.819,7.822,7.5,13.008,7.5c2.549,0,5.127-0.645,7.485-2.007c7.178-4.146,9.639-13.315,5.493-20.493   l-17.009-29.458h34.016c8.291,0,15-6.709,15-15S505.322,406.014,497.031,406.014z" />

    <ellipse style="fill:#BDD9F1;" cx="347.002" cy="331.014" rx="15" ry="15"
        transform="matrix(0.8444 -0.5357 0.5357 0.8444 -123.3331 237.3909)" />

    <ellipse style="fill:#BDD9F1;" cx="76.002" cy="481.014" rx="15" ry="15"
        transform="matrix(0.8444 -0.5357 0.5357 0.8444 -245.8528 115.5553)" />

    <ellipse style="fill:#E0F3FC;" cx="15.002" cy="151.014" rx="15" ry="15"
        transform="matrix(0.8444 -0.5357 0.5357 0.8444 -78.5635 31.5329)" />
</g>















</svg>
